{"title":"iDoctor_Who_Series_8-1._Deep_Breath-2014-08-23_720p","uid":10863645,"size":1377146316,"categoryP":"video","categoryS":"hd___tv_shows","magnet":"?xt=urn:btih:b3f9a2d0082b50cb80ab7c69efb338aeba2157a8&amp;dn=iDoctor_Who_Series_8-1._Deep_Breath-2014-08-23_720p&amp;tr=udp%3A%2F%2Ftracker.openbittorrent.com%3A80&amp;tr=udp%3A%2F%2Fopen.demonii.com%3A1337&amp;tr=udp%3A%2F%2Ftracker.coppersurfer.tk%3A6969&amp;tr=udp%3A%2F%2Fexodus.desync.com%3A6969","seeders":1,"leechers":0,"uploader":"snippersniffer","files":2,"time":1408901463,"description":"When the Doctor arrives in Victorian London he finds a dinosaur rampant in the Thames and a spate of deadly spontaneous combustions.   Who is the new Doctor and will Clara's friendship with him survive as they embark on a terrifying mission into the heart of an alien conspiracy?   The Doctor has changed. It's time you knew him.\n\n720p, English subtitles.\n\nGeneral\nFormat                         : MPEG-4\nFormat profile                 : Base Media\nCodec ID                       : isom\nFile size                      : 1.28 GiB\nDuration                       : 1h 16mn\nOverall bit rate mode          : Variable\nOverall bit rate               : 2 400 Kbps\nCollection                     : Doctor Who: Series 8\nSeason                         : 8\nAlbum                          : Doctor Who: Series 8\nAlbum/Performer                : BBC TV\nPart                           : 1\nPart/Position                  : 8\nTrack name                     : 1. Deep Breath\nTrack name/Position            : 1\nGrouping                       : Drama,SciFi &amp; Fantasy\nPerformer                      : BBC One\nComposer                       : BBC iPlayer\nGenre                          : Drama\nContentType                    : TV Show\nDescription                    : When the Doctor arrives in Victorian London he finds a dinosaur rampant in the Thames.\nRecorded date                  : 2014-08-23T19:50:00+01:00\nTagged date                    : UTC 2014-08-24 03:59:57\nWriting application            : Lavf54.63.104\nCopyright                      : Â© 2014 British Broadcasting Corporation, all rights reserved\nCover                          : Yes\nComment                        : When the Doctor arrives in Victorian London he finds a dinosaur rampant in the Thames.\nPart_ID                        : s08e01\nTVNetworkName                  : BBC One\n\nVideo\nID                             : 1\nFormat                         : AVC\nFormat/Info                    : Advanced Video Codec\nFormat profile                 : &lt;a class=&quot;__cf_email__&quot; href=&quot;/cdn-cgi/l/email-protection&quot; data-cfemail=&quot;e4ac8d838ca4a8d0cad5&quot;&gt;[email&amp;#160;protected]&lt;/a&gt;&lt;script cf-hash='f9e31' type=&quot;text/javascript&quot;&gt;\n/* &lt;![CDATA[ */!function(){try{var t=&quot;currentScript&quot;in document?document.currentScript:function(){for(var t=document.getElementsByTagName(&quot;script&quot;),e=t.length;e--;)if(t[e].getAttribute(&quot;cf-hash&quot;))return t[e]}();if(t&amp;&amp;t.previousSibling){var e,r,n,i,c=t.previousSibling,a=c.getAttribute(&quot;data-cfemail&quot;);if(a){for(e=&quot;&quot;,r=parseInt(a.substr(0,2),16),n=2;a.length-n;n+=2)i=parseInt(a.substr(n,2),16)^r,e+=String.fromCharCode(i);e=document.createTextNode(e),c.parentNode.replaceChild(e,c)}}}catch(u){}}();/* ]]&gt; */&lt;/script&gt;\nFormat settings, CABAC         : Yes\nFormat settings, ReFrames      : 2 frames\nCodec ID                       : avc1\nCodec ID/Info                  : Advanced Video Coding\nDuration                       : 1h 16mn\nBit rate mode                  : Variable\nBit rate                       : 2 301 Kbps\nMaximum bit rate               : 3 500 Kbps\nWidth                          : 1 280 pixels\nHeight                         : 720 pixels\nDisplay aspect ratio           : 16:9\nFrame rate mode                : Constant\nFrame rate                     : 25.000 fps\nColor space                    : YUV\nChroma subsampling             : 4:2:0\nBit depth                      : 8 bits\nScan type                      : Progressive\nBits/(Pixel*Frame)             : 0.100\nStream size                    : 1.23 GiB (96%)\n\nAudio\nID                             : 2\nFormat                         : AAC\nFormat/Info                    : Advanced Audio Codec\nFormat profile                 : LC\nCodec ID                       : 40\nDuration                       : 1h 16mn\nBit rate mode                  : Constant\nBit rate                       : 93.5 Kbps\nChannel(s)                     : 2 channels\nChannel positions              : Front: L R\nSampling rate                  : 48.0 KHz\nCompression mode               : Lossy\nStream size                    : 51.2 MiB (4%)\n\n","torrent":{"xt":"urn:btih:b3f9a2d0082b50cb80ab7c69efb338aeba2157a8","amp;dn":"iDoctor_Who_Series_8-1._Deep_Breath-2014-08-23_720p","amp;tr":["udp%3A%2F%2Ftracker.openbittorrent.com%3A80","udp%3A%2F%2Fopen.demonii.com%3A1337","udp%3A%2F%2Ftracker.coppersurfer.tk%3A6969","udp%3A%2F%2Fexodus.desync.com%3A6969"],"infoHash":"b3f9a2d0082b50cb80ab7c69efb338aeba2157a8","infoHashBuffer":{"type":"Buffer","data":[179,249,162,208,8,43,80,203,128,171,124,105,239,179,56,174,186,33,87,168]},"announce":[],"urlList":[]}}